<?xml version="1.0" standalone="no"?>
<!DOCTYPE svg PUBLIC "-//W3C//DTD SVG 20010904//EN"
 "http://www.w3.org/TR/2001/REC-SVG-20010904/DTD/svg10.dtd">
<svg version="1.0" xmlns="http://www.w3.org/2000/svg"
 width="500.000000pt" height="500.000000pt" viewBox="0 0 500.000000 500.000000"
 preserveAspectRatio="xMidYMid meet">

<g transform="translate(0.000000,500.000000) scale(0.100000,-0.100000)"
fill="#000000" stroke="none">
<path d="M4213 4479 c-56 -16 -108 -76 -128 -144 -13 -47 -23 -64 -45 -77 -16
-9 -45 -41 -64 -70 -19 -29 -48 -66 -65 -81 -17 -16 -31 -35 -31 -42 0 -8 -13
-29 -28 -47 -16 -18 -47 -60 -70 -93 -23 -33 -50 -71 -60 -84 l-19 -24 -59 60
c-65 66 -88 76 -139 62 -42 -12 -65 -42 -65 -87 0 -34 24 -92 39 -92 4 0 29
-18 54 -41 l47 -40 -21 -42 c-12 -23 -33 -58 -48 -77 l-26 -35 -6 30 c-4 17
-7 51 -8 77 -1 40 -7 55 -37 88 -40 44 -37 45 -109 -18 -27 -24 -34 -36 -25
-42 8 -5 8 -10 2 -14 -6 -3 -12 -1 -14 6 -3 7 -18 1 -41 -18 -21 -16 -35 -34
-33 -39 2 -6 -2 -16 -10 -23 -10 -9 -15 -8 -23 6 -9 15 -10 14 -11 -8 0 -25
-81 -222 -104 -253 -12 -16 -20 -13 -101 38 -49 30 -94 55 -102 55 -18 0 -18
1 21 90 59 133 63 157 57 341 l-6 166 -115 -73 c-63 -40 -118 -73 -122 -73
-14 -1 -9 23 13 64 l21 39 -33 80 c-18 45 -68 152 -111 239 -43 87 -78 162
-78 167 0 56 -92 -112 -215 -392 -35 -82 -37 -89 -22 -106 21 -23 48 -88 40
-96 -7 -7 -42 13 -167 96 -49 32 -91 56 -93 54 -3 -3 -7 -77 -10 -165 -5 -171
-4 -178 54 -309 12 -29 23 -59 23 -67 0 -7 5 -17 10 -20 20 -12 9 -33 -22 -46
-18 -7 -63 -32 -100 -55 -49 -31 -69 -40 -76 -31 -18 22 -62 116 -62 132 0 13
-9 15 -52 11 -53 -6 -53 -6 -16 7 20 6 39 15 42 18 3 3 -5 28 -19 56 -16 35
-34 55 -55 64 -16 8 -30 18 -30 23 0 10 -151 166 -161 166 -12 0 -49 -148 -54
-221 -11 -130 -8 -127 -64 -77 -51 45 -186 117 -351 188 -52 22 -105 46 -117
52 -34 17 -38 4 -16 -49 11 -26 35 -93 53 -148 18 -55 46 -126 62 -158 20 -41
25 -58 16 -61 -7 -2 -92 -22 -188 -45 -96 -24 -183 -45 -193 -48 -14 -3 0 -16
55 -50 40 -24 94 -60 119 -79 55 -40 147 -83 242 -114 37 -12 65 -26 62 -31
-6 -8 -65 -48 -157 -105 -26 -16 -47 -31 -48 -34 -1 -19 233 -111 288 -114 17
0 32 -5 32 -10 0 -5 6 -4 13 3 9 7 17 7 23 1 6 -6 45 -14 89 -20 43 -5 80 -11
81 -13 2 -2 1 -63 -3 -135 -6 -130 -6 -132 -30 -132 -12 0 -23 -5 -23 -12 0
-9 -3 -9 -12 0 -14 14 -68 16 -68 2 0 -5 -15 -7 -34 -5 -28 4 -35 1 -39 -17
-5 -19 -7 -19 -22 -4 -23 23 -54 20 -65 -6 -5 -13 -9 -17 -9 -10 -1 18 -25 15
-63 -7 -18 -11 -66 -29 -107 -40 -82 -23 -86 -25 -78 -43 4 -13 117 -83 195
-122 32 -16 35 -36 7 -36 -17 0 -150 -52 -221 -86 -28 -14 -86 -49 -130 -79
-43 -30 -107 -73 -141 -96 -34 -24 -61 -44 -59 -46 11 -12 324 -116 429 -143
26 -7 46 -16 44 -19 -21 -39 -56 -126 -65 -162 -6 -25 -29 -84 -51 -130 -46
-98 -121 -284 -121 -301 0 -6 12 0 27 14 16 14 71 56 123 93 214 153 416 329
441 385 9 19 26 43 37 53 23 21 22 24 37 -98 9 -67 50 -210 69 -237 l16 -22 0
27 c0 21 23 52 103 135 70 73 120 136 157 200 30 50 57 92 61 92 3 0 44 -22
90 -50 46 -27 90 -50 97 -50 16 0 16 -4 -9 -52 -63 -123 -68 -150 -61 -336 l7
-172 109 70 c60 38 117 77 127 86 34 31 34 4 1 -60 -17 -34 -32 -68 -32 -77 0
-21 51 -149 107 -269 27 -58 64 -138 83 -177 18 -40 37 -73 41 -73 18 0 229
462 229 501 0 8 -10 42 -22 76 -12 34 -19 65 -16 69 4 3 19 -3 35 -14 15 -10
48 -30 73 -42 24 -12 67 -40 96 -61 28 -22 53 -39 55 -39 10 0 1 397 -9 415
-21 38 -65 145 -61 149 2 2 27 15 54 29 28 14 67 37 88 51 21 15 42 24 46 22
4 -3 32 -44 62 -91 35 -56 92 -125 162 -194 l107 -108 1 -79 c0 -53 3 -73 9
-59 5 11 9 33 9 49 1 16 5 43 11 60 21 68 49 194 55 246 4 30 11 65 17 77 10
20 12 20 69 -26 32 -26 105 -75 163 -109 58 -35 127 -82 153 -106 26 -23 63
-50 81 -59 l32 -15 0 27 c0 25 -29 79 -30 56 0 -5 -4 -3 -10 5 -6 9 -5 19 2
28 7 7 12 41 12 75 0 50 -6 75 -31 125 -21 42 -28 64 -20 66 7 2 104 33 217
69 113 36 220 69 239 72 l34 7 -114 74 c-63 40 -120 74 -126 74 -7 0 -13 4
-13 9 0 11 -117 78 -145 83 -11 1 -28 10 -38 19 -20 18 -140 59 -172 59 -11 0
18 20 63 45 105 56 167 98 165 110 0 6 -42 24 -93 41 -50 17 -96 36 -103 43
-17 17 -50 14 -43 -4 3 -8 1 -15 -5 -15 -6 0 -13 9 -16 19 -6 24 -11 26 -107
42 -63 11 -79 11 -85 0 -6 -10 -10 -9 -14 3 -4 11 -19 16 -46 16 l-39 0 -4
123 c-2 67 -3 123 -2 125 1 2 66 14 144 28 98 17 174 37 246 65 93 36 166 78
138 79 -10 0 -158 94 -190 121 -13 11 -4 17 63 44 122 50 394 219 376 235 -16
13 -210 70 -241 70 -17 0 -61 10 -98 22 -54 17 -65 25 -61 40 7 26 -12 22 -38
-8 -13 -15 -49 -41 -82 -58 -35 -19 -58 -38 -58 -48 0 -27 -10 -30 -30 -8 -12
13 -14 20 -5 20 11 0 87 46 158 95 12 9 31 34 42 56 11 21 26 39 33 39 7 0 33
-20 57 -45 46 -47 72 -55 113 -34 32 17 57 50 57 79 0 31 -32 84 -63 104 -12
9 -33 29 -46 46 l-22 31 32 42 c18 23 52 63 76 89 24 26 43 52 43 57 0 6 20
33 45 61 25 28 45 54 45 58 0 4 20 32 45 62 25 30 57 79 71 108 16 31 33 52
43 52 48 0 101 81 101 155 0 136 -111 213 -247 174z m133 -58 c31 -19 64 -74
64 -107 0 -9 -3 -14 -7 -10 -4 4 -14 -8 -23 -25 -25 -53 -61 -73 -130 -73 -69
0 -91 15 -108 71 -10 32 -9 43 8 78 39 78 127 108 196 66z m-1821 -136 c14
-31 25 -58 25 -60 0 -3 14 -33 30 -67 17 -34 30 -66 30 -71 0 -5 -22 15 -49
43 -26 29 -51 48 -54 43 -8 -12 -3 -270 4 -278 4 -3 25 23 48 59 44 67 81 107
81 87 0 -6 -9 -19 -20 -28 -11 -10 -20 -21 -20 -25 0 -5 -20 -36 -45 -70 l-45
-62 0 -146 c0 -166 -7 -220 -26 -220 -11 0 -14 18 -14 73 l-1 72 -81 52 c-45
29 -84 51 -86 48 -2 -2 7 -23 21 -47 13 -24 22 -50 20 -60 -6 -24 -95 73 -134
145 -17 32 -33 56 -36 53 -3 -3 1 -16 9 -28 24 -37 88 -179 77 -173 -5 4 -9
-3 -9 -15 0 -14 -4 -19 -12 -14 -9 5 -8 2 1 -9 12 -15 12 -17 -3 -11 -11 4
-16 1 -16 -11 0 -9 5 -13 10 -10 6 3 10 -1 10 -10 0 -9 -4 -13 -10 -10 -6 3
-10 -4 -10 -17 0 -24 -20 -64 -20 -40 0 6 -10 12 -22 12 -16 0 -19 3 -11 11 7
7 5 22 -8 49 -11 22 -19 50 -19 64 0 22 -22 132 -36 179 -5 16 -3 17 14 8 19
-10 19 -9 6 27 -7 20 -13 45 -14 54 0 15 3 16 28 5 15 -6 29 -14 32 -17 3 -3
39 -27 81 -53 42 -25 100 -71 129 -101 49 -51 90 -76 90 -55 0 23 -56 119 -70
120 -10 0 -11 2 -2 6 6 2 12 10 12 17 0 11 -47 117 -70 158 -15 26 -13 34 24
112 18 39 54 115 80 169 25 53 48 97 51 97 2 0 16 -25 30 -55z m1589 -96 c46
-21 84 -55 73 -65 -3 -3 -20 1 -38 10 -41 20 -46 20 -27 -1 22 -25 52 -86 40
-82 -35 14 -151 75 -151 81 -2 13 41 78 50 78 5 0 29 -9 53 -21z m-74 -136
c52 -27 68 -51 30 -45 -18 3 -19 0 -10 -23 17 -44 12 -46 -32 -19 -23 15 -57
33 -75 41 l-34 14 18 29 c21 37 35 37 103 3z m-1405 -125 c-16 -23 -16 -23
-10 7 4 17 10 39 13 50 6 17 7 16 10 -7 2 -15 -4 -38 -13 -50z m1323 23 c20
-10 48 -31 61 -45 l24 -26 -22 0 c-12 0 -31 5 -42 10 -22 12 -24 7 -8 -22 6
-11 8 -22 6 -25 -8 -7 -127 60 -127 72 0 21 32 55 51 55 11 0 36 -9 57 -19z
m178 -40 c-15 -15 -16 -13 -4 19 9 26 13 30 16 16 2 -10 -3 -26 -12 -35z
m-1256 -37 c-6 -14 -8 -30 -5 -35 4 -5 -1 -6 -9 -3 -9 3 -19 -3 -27 -18 -6
-13 -18 -26 -25 -31 -7 -4 -10 -15 -7 -24 4 -10 2 -14 -4 -10 -6 4 -25 -14
-42 -42 -29 -45 -85 -105 -66 -71 6 12 5 12 -5 3 -7 -6 -18 -9 -26 -6 -10 4
-4 18 21 56 19 28 33 53 31 55 -3 2 -25 -8 -51 -23 -62 -37 -70 -22 -15 27 41
36 215 147 232 148 4 0 3 -12 -2 -26z m700 -16 c0 -12 -7 -30 -17 -40 -17 -19
-53 -25 -53 -9 0 5 10 7 23 4 22 -5 22 -5 2 10 -11 9 -26 17 -33 17 -22 0 -9
33 17 47 31 15 61 1 61 -29z m271 -12 c41 -17 89 -54 89 -68 0 -12 -30 -7 -85
16 -24 10 -34 12 -25 4 8 -7 22 -21 30 -32 12 -15 6 -14 -38 8 -28 14 -52 29
-52 32 0 8 34 53 41 54 4 0 22 -6 40 -14z m210 -29 c-8 -8 -11 -3 -11 19 1 25
2 27 11 11 8 -14 8 -22 0 -30z m-1981 29 c0 -3 -4 -8 -10 -11 -5 -3 -10 -1
-10 4 0 6 5 11 10 11 6 0 10 -2 10 -4z m1737 -153 c28 -25 42 -43 32 -43 -23
0 -219 136 -219 152 0 15 136 -64 187 -109z m-110 25 c54 -46 134 -111 176
-146 42 -34 77 -67 77 -73 0 -19 -235 155 -317 234 -51 49 -63 67 -44 67 4 0
53 -37 108 -82z m-836 26 c-9 -28 -9 -29 -10 -3 -1 14 2 29 6 32 11 12 13 2 4
-29z m1091 -36 c-8 -8 -9 -4 -5 13 4 13 8 18 11 10 2 -7 -1 -18 -6 -23z
m-1193 -58 c-43 -81 -49 -70 -7 14 18 37 34 62 36 57 2 -6 -11 -38 -29 -71z
m881 48 l23 -33 -26 24 c-15 14 -27 28 -27 33 0 14 5 9 30 -24z m-241 -86 c13
-104 14 -182 2 -200 -5 -9 -11 17 -15 67 -4 45 -12 81 -17 81 -5 0 -9 -34 -9
-75 0 -55 -7 -96 -29 -161 -31 -90 -51 -125 -51 -87 0 12 5 25 10 28 15 9 13
58 -3 52 -8 -3 -14 5 -15 21 -1 14 -4 28 -7 30 -3 3 -20 -29 -40 -71 -37 -83
-53 -102 -30 -37 14 40 11 75 -6 64 -13 -7 -11 83 2 131 6 22 28 56 50 78 21
22 36 44 32 50 -3 5 -1 7 4 4 13 -8 65 57 55 68 -4 5 1 5 10 2 18 -6 44 24 31
37 -3 3 -2 6 4 6 6 0 15 -40 22 -88z m-1707 -35 c36 -39 52 -63 43 -65 -8 -2
-25 4 -38 12 -29 20 -38 12 -30 -27 8 -39 32 -63 60 -59 14 2 23 -3 28 -17 9
-31 -3 -43 -40 -39 -30 3 -33 2 -30 -22 1 -14 -2 -31 -7 -37 -7 -9 -7 -13 1
-13 6 0 11 -10 11 -21 0 -18 -2 -19 -15 -9 -8 7 -15 18 -15 25 0 7 -8 15 -18
17 -11 3 -23 22 -31 47 -8 29 -17 41 -26 37 -20 -7 -29 68 -16 139 6 32 11 75
11 95 0 49 11 57 35 25 11 -15 46 -55 77 -88z m1118 97 c0 -8 -5 -12 -10 -9
-6 4 -8 11 -5 16 9 14 15 11 15 -7z m-1625 -96 c14 -7 67 -34 118 -60 l92 -47
55 -91 c30 -50 76 -124 102 -165 30 -47 42 -75 35 -78 -7 -2 6 -12 28 -22 28
-13 35 -19 23 -22 -10 -2 -44 8 -77 22 -57 26 -66 27 -252 28 l-193 2 -7 -25
c-8 -27 -12 -18 -9 18 1 18 -4 22 -28 22 -37 0 -43 -7 -30 -35 10 -23 46 -45
74 -45 25 0 158 -42 169 -53 7 -6 -2 -7 -25 -3 -19 4 -59 11 -89 16 -65 11
-209 77 -222 102 -5 10 -16 18 -24 18 -22 0 -86 36 -78 44 3 3 23 6 43 6 20 0
61 8 91 17 52 16 231 25 244 12 10 -11 -7 -38 -21 -32 -8 3 -14 -1 -14 -9 0
-12 20 -17 83 -21 131 -11 177 -9 177 7 0 17 -116 133 -152 152 -27 14 -76 14
-70 -1 2 -4 -2 -11 -9 -16 -10 -6 -10 -11 0 -23 8 -9 9 -16 4 -16 -24 0 -57
56 -103 176 -28 71 -55 137 -60 146 -6 10 -10 22 -10 28 0 9 70 -18 135 -52z
m519 56 c9 -3 16 -10 16 -16 0 -5 -4 -6 -10 -3 -5 3 -10 0 -10 -7 0 -9 -3 -9
-10 2 -18 27 -13 35 14 24z m656 -24 c6 -11 8 -20 6 -20 -3 0 -10 9 -16 20 -6
11 -8 20 -6 20 3 0 10 -9 16 -20z m280 16 c0 -3 -4 -8 -10 -11 -5 -3 -10 -1
-10 4 0 6 5 11 10 11 6 0 10 -2 10 -4z m1020 -70 c-1 -10 -21 -39 -109 -159
-33 -44 -36 -46 -53 -30 -30 27 -21 57 43 158 l62 96 28 -27 c16 -15 29 -33
29 -38z m-854 -31 c-14 -28 -25 -45 -25 -39 -1 18 42 110 46 99 2 -6 -8 -33
-21 -60z m915 -42 c-7 -15 -5 -18 16 -19 41 -3 40 -14 -7 -56 -59 -53 -116
-81 -146 -74 -35 9 -30 23 16 46 23 12 56 42 76 70 34 48 65 70 45 33z m-1971
-3 c0 -5 -5 -10 -11 -10 -5 0 -7 5 -4 10 3 6 8 10 11 10 2 0 4 -4 4 -10z
m2260 -5 c15 -18 10 -45 -12 -59 -24 -14 -34 -1 -14 19 22 22 20 34 -6 45 -23
9 -23 9 -2 9 12 1 27 -6 34 -14z m-1344 -101 c44 -9 83 -20 88 -24 5 -5 -5
-25 -23 -47 -17 -21 -45 -58 -63 -82 -31 -42 -122 -100 -135 -87 -3 3 7 34 22
68 40 94 41 98 3 37 -19 -31 -42 -66 -51 -80 -37 -51 -11 -82 50 -60 19 7 36
11 38 9 2 -2 -14 -41 -36 -87 -21 -46 -39 -88 -39 -92 0 -5 -12 -28 -26 -50
-14 -23 -20 -38 -12 -33 24 14 82 58 187 141 57 46 107 83 112 83 4 0 -14 -44
-40 -97 -69 -138 -71 -160 -9 -71 72 101 114 194 98 213 -13 16 -96 13 -153
-5 -26 -9 -27 -8 -15 13 6 12 28 45 48 72 21 28 48 69 60 93 13 23 30 42 37
42 8 0 33 -10 56 -21 175 -90 331 -248 424 -434 54 -106 93 -266 72 -292 -20
-23 -26 -14 -33 45 -11 94 -47 197 -103 293 l-32 56 -63 -14 c-81 -18 -190
-71 -253 -123 -27 -23 -100 -91 -162 -150 -62 -60 -126 -117 -143 -127 -21
-12 -30 -24 -28 -38 3 -17 9 -20 49 -17 31 2 50 -2 58 -12 7 -8 28 -20 46 -26
22 -7 38 -22 50 -45 19 -41 40 -47 33 -10 -7 35 13 32 43 -7 l24 -33 5 35 5
35 26 -27 c35 -37 43 -35 35 7 -4 21 -3 35 3 35 9 0 61 -61 61 -72 0 -7 -114
-34 -225 -53 -153 -27 -273 -35 -360 -24 -221 27 -517 101 -647 163 -49 24
-148 107 -148 125 0 40 30 153 59 223 121 290 359 489 666 557 67 15 257 12
341 -5z m-916 -19 c0 -8 -4 -15 -10 -15 -5 0 -10 7 -10 15 0 8 5 15 10 15 6 0
10 -7 10 -15z m1720 -40 c0 -8 -4 -15 -10 -15 -5 0 -7 7 -4 15 4 8 8 15 10 15
2 0 4 -7 4 -15z m334 -55 c-10 -4 -21 -6 -24 -3 -8 7 24 22 34 16 5 -4 1 -10
-10 -13z m-73 -13 c-10 -9 -11 -8 -5 6 3 10 9 15 12 12 3 -3 0 -11 -7 -18z
m56 -27 c9 0 24 7 34 16 16 14 28 14 145 -6 70 -11 134 -25 142 -29 15 -8 -8
-23 -128 -85 -30 -16 -62 -35 -71 -43 -16 -13 -175 -53 -214 -53 -17 0 -17 2
-5 10 8 5 28 10 44 10 79 0 265 84 295 132 10 16 8 18 -16 18 -16 0 -59 -6
-98 -14 -103 -21 -126 -24 -285 -36 -80 -6 -156 -13 -170 -16 -33 -7 -109 -43
-139 -66 -30 -23 -41 -23 -41 0 1 16 121 112 141 112 6 0 29 13 53 29 23 16
60 32 82 36 l39 6 -45 -41 -45 -41 40 8 c22 4 52 6 67 6 15 -1 30 2 33 7 4 6
22 10 40 10 30 0 37 5 57 43 22 41 23 41 26 15 2 -18 9 -28 19 -28z m183 40
c0 -5 -2 -10 -4 -10 -3 0 -8 5 -11 10 -3 6 -1 10 4 10 6 0 11 -4 11 -10z
m-265 -20 c3 -5 -3 -10 -15 -10 -12 0 -18 5 -15 10 3 6 10 10 15 10 5 0 12 -4
15 -10z m-263 -32 c-7 -7 -12 -8 -12 -2 0 6 3 14 7 17 3 4 9 5 12 2 2 -3 -1
-11 -7 -17z m-2507 -68 c3 -5 1 -10 -4 -10 -6 0 -11 5 -11 10 0 6 2 10 4 10 3
0 8 -4 11 -10z m145 -10 c0 -5 -5 -10 -11 -10 -5 0 -7 5 -4 10 3 6 8 10 11 10
2 0 4 -4 4 -10z m115 0 c3 -5 2 -10 -4 -10 -5 0 -13 5 -16 10 -3 6 -2 10 4 10
5 0 13 -4 16 -10z m1516 -58 c-12 -22 -120 -106 -127 -99 -12 11 49 89 79 102
46 20 60 19 48 -3z m-1231 -8 c0 -2 -7 -4 -15 -4 -8 0 -15 4 -15 10 0 5 7 7
15 4 8 -4 15 -8 15 -10z m1977 -70 c-3 -3 -12 -4 -19 -1 -8 3 -5 6 6 6 11 1
17 -2 13 -5z m-2017 -29 c-6 -8 -9 -19 -5 -25 3 -5 1 -10 -4 -10 -6 0 -11 -4
-11 -10 0 -6 10 -6 27 1 18 7 30 6 37 -1 7 -7 4 -10 -9 -11 -11 0 -30 -2 -42
-5 -13 -2 -23 1 -23 6 0 6 -5 10 -10 10 -7 0 -7 -7 0 -20 9 -17 7 -22 -17 -30
-53 -20 -78 -28 -122 -40 -32 -9 -40 -14 -30 -21 8 -5 23 -9 35 -9 11 0 24 -3
28 -7 4 -5 24 -14 44 -20 l37 -13 -40 5 c-44 5 -176 31 -207 41 -19 6 -19 7 4
21 12 9 46 33 73 53 28 20 77 47 110 59 33 13 69 27 80 31 11 5 28 9 39 9 15
1 16 -2 6 -14z m2191 -15 c41 -17 85 -38 99 -48 14 -9 34 -22 45 -28 11 -6 37
-21 58 -32 21 -12 45 -23 55 -23 9 -1 -1 -5 -23 -9 -22 -5 -60 -13 -84 -20
-24 -6 -55 -12 -70 -14 -14 -2 -39 -7 -56 -11 -16 -4 -28 -5 -25 -2 3 3 7 5
10 4 3 0 16 5 29 13 14 7 41 15 60 17 20 3 52 8 71 13 31 7 32 8 8 9 -15 1
-30 6 -34 12 -3 6 -17 8 -31 4 -14 -3 -30 -2 -36 3 -7 5 -33 15 -59 23 -41 11
-44 14 -30 26 12 8 13 12 4 13 -7 0 -11 4 -8 8 10 16 -25 52 -50 52 -13 0 -24
5 -24 10 0 15 11 13 91 -20z m-421 -106 c0 -10 -14 -14 -47 -14 -27 0 -59 -3
-73 -6 -24 -6 -24 -6 -8 11 17 18 91 35 116 27 6 -2 12 -10 12 -18z m388 -39
c-3 -3 -9 2 -12 12 -6 14 -5 15 5 6 7 -7 10 -15 7 -18z m-393 -263 c-8 -45
-62 -98 -131 -128 -30 -13 -59 -24 -64 -24 -8 0 -30 60 -30 82 0 4 14 2 31 -4
25 -9 33 -8 39 3 5 8 18 25 29 38 30 35 26 39 -7 8 -15 -15 -37 -27 -47 -27
-16 0 -14 5 12 30 43 42 70 100 90 193 17 78 32 95 52 60 9 -16 10 -15 11 8 0
14 3 29 8 33 9 10 15 -227 7 -272z m-1767 211 c-10 -2 -26 -2 -35 0 -10 3 -2
5 17 5 19 0 27 -2 18 -5z m2136 0 c-5 -5 -12 -12 -15 -16 -3 -5 -9 -2 -12 7
-5 12 0 16 15 16 12 0 17 -3 12 -7z m-2264 -23 c0 -5 -5 -10 -11 -10 -5 0 -7
5 -4 10 3 6 8 10 11 10 2 0 4 -4 4 -10z m2406 -17 c-7 -7 -26 7 -26 19 0 6 6
6 15 -2 9 -7 13 -15 11 -17z m41 21 c-3 -3 -12 -4 -19 -1 -8 3 -5 6 6 6 11 1
17 -2 13 -5z m-817 -46 c24 -40 25 -60 4 -103 -17 -36 -65 -65 -108 -65 -32 0
-76 41 -76 69 0 39 101 129 148 131 7 0 21 -15 32 -32z m-1546 10 c-3 -4 -11
-5 -19 -1 -21 7 -19 12 4 10 11 0 18 -5 15 -9z m1986 -257 c0 -64 -26 -188
-56 -268 -91 -242 -252 -418 -478 -523 -123 -58 -200 -80 -305 -86 -206 -14
-398 49 -589 194 -168 127 -273 284 -331 498 -22 84 -38 224 -24 224 24 0 65
-63 87 -131 13 -41 27 -83 31 -93 6 -14 5 -17 -3 -12 -16 9 -16 10 9 -70 39
-126 85 -199 199 -314 97 -99 113 -111 220 -163 134 -66 220 -87 358 -87 256
0 546 161 695 387 76 114 147 314 147 411 0 45 14 82 30 82 6 0 10 -22 10 -49z
m-2002 -106 c-3 -3 -9 2 -12 12 -6 14 -5 15 5 6 7 -7 10 -15 7 -18z m125 -32
c35 -18 36 -36 1 -22 -15 5 -29 7 -32 5 -3 -3 2 -8 10 -11 13 -5 12 -10 -6
-30 -17 -19 -22 -21 -29 -9 -10 18 -41 18 -57 -1 -7 -8 -22 -15 -34 -16 -20 0
-20 -1 -2 -8 16 -6 12 -10 -25 -25 l-44 -18 50 -24 50 -24 -39 6 c-21 3 -52
11 -70 19 -17 7 -56 23 -86 35 -30 13 -70 33 -89 46 l-34 23 29 6 c16 4 54 15
84 26 71 25 204 32 242 13 40 -21 45 -17 17 12 l-24 26 30 -8 c17 -4 42 -13
58 -21z m2197 -4 c84 -13 192 -48 188 -61 -6 -16 -169 -98 -195 -98 -20 0 -15
18 7 25 11 4 18 10 15 14 -6 11 -58 1 -67 -13 -7 -10 -58 36 -58 53 0 4 15 15
33 24 l32 17 -42 -6 c-34 -4 -50 -1 -79 16 -30 19 -39 21 -62 11 -26 -12 -26
-12 -10 5 10 10 37 21 60 25 44 7 62 6 178 -12z m-1762 -53 c31 -24 68 -56 81
-70 14 -14 30 -26 37 -26 20 0 33 32 27 64 l-6 29 31 -22 c17 -12 57 -45 88
-73 44 -41 58 -49 65 -37 5 8 9 17 9 22 0 31 110 -24 182 -91 l27 -25 40 36
c46 42 106 81 139 91 19 6 24 3 33 -23 6 -17 14 -31 19 -31 4 0 20 15 36 33
33 37 122 107 137 107 6 0 7 -16 3 -39 -10 -62 11 -68 64 -18 43 41 111 96
137 111 17 9 9 -11 -52 -134 -25 -52 -61 -126 -80 -163 l-33 -69 -7 40 c-3 22
-17 66 -30 97 -20 51 -24 55 -30 34 -34 -114 -117 -310 -122 -289 -2 8 -23 54
-45 102 -39 81 -42 85 -53 64 -16 -31 -81 -149 -118 -214 -29 -51 -30 -52 -42
-30 -6 13 -27 48 -45 78 -41 69 -63 107 -85 149 -21 41 -26 37 -74 -68 l-38
-80 -23 52 c-26 60 -29 67 -66 165 -15 40 -31 75 -34 77 -8 5 -60 -122 -60
-145 0 -8 -10 1 -21 20 -29 47 -159 320 -153 320 3 0 31 -20 62 -44z m1694
-117 c-13 -5 -21 -13 -18 -18 9 -15 -18 -31 -34 -21 -12 8 -12 10 3 10 10 0
16 4 12 9 -6 11 23 31 45 30 8 0 5 -4 -8 -10z m320 -147 c36 -18 73 -41 83
-52 10 -11 29 -20 42 -20 12 0 23 -4 23 -10 0 -5 6 -10 13 -10 10 0 121 -70
137 -87 3 -3 -14 -2 -37 2 -28 4 -43 3 -43 -4 0 -6 7 -8 15 -5 8 4 15 4 15 0
0 -3 -33 -15 -72 -27 -40 -11 -77 -24 -83 -28 -5 -4 -22 -8 -37 -9 -21 -1 -28
3 -28 16 0 14 10 17 53 19 28 0 66 7 82 14 17 7 33 12 36 11 3 0 6 5 6 13 0
16 -50 25 -312 55 -268 31 -348 48 -458 94 -46 19 -50 38 -4 26 17 -5 67 -10
109 -12 43 -2 80 -7 83 -10 4 -3 18 0 33 7 15 7 59 17 97 21 l70 8 -47 6 c-80
10 -70 20 32 33 40 5 121 -17 192 -51z m-2642 39 c0 -5 -10 -13 -22 -17 -43
-13 -90 -35 -86 -40 3 -2 30 2 60 10 41 10 80 12 163 6 62 -4 119 -4 133 1 13
5 35 9 50 9 l27 -1 -23 -19 c-56 -47 -353 -111 -654 -142 -86 -9 -107 -14
-111 -28 -3 -14 9 -20 67 -34 39 -9 78 -16 87 -16 9 0 30 -7 45 -15 16 -8 39
-15 52 -15 13 0 22 -6 22 -16 0 -13 -7 -15 -32 -11 -48 7 -148 35 -185 52 -17
8 -61 24 -98 36 -37 11 -65 22 -63 24 1 1 55 37 118 79 104 69 206 116 305
139 38 9 145 7 145 -2z m2250 -31 c0 -5 -2 -10 -4 -10 -3 0 -8 5 -11 10 -3 6
-1 10 4 10 6 0 11 -4 11 -10z m-2206 -168 l-16 -27 22 28 c12 15 26 24 32 21
5 -4 1 -15 -10 -28 -11 -11 -39 -55 -62 -96 -24 -41 -58 -96 -77 -122 -31 -43
-32 -48 -15 -48 29 0 103 28 124 47 13 12 18 13 18 3 0 -9 7 -7 21 6 22 19 22
19 8 -3 -7 -13 -20 -25 -27 -28 -7 -2 -10 0 -7 5 3 6 2 10 -3 10 -6 0 -13 -11
-16 -25 -4 -14 -11 -23 -16 -20 -5 3 -25 -1 -45 -9 -19 -8 -35 -13 -35 -10 0
2 -21 -6 -47 -20 -62 -30 -113 -42 -113 -25 0 37 149 278 172 279 10 0 50 41
71 73 23 36 42 25 21 -11z m2253 6 c11 -13 31 -43 43 -68 12 -25 32 -58 45
-75 12 -16 25 -40 29 -51 3 -12 15 -29 26 -39 19 -17 20 -17 20 1 0 11 -4 24
-9 29 -6 6 -11 21 -13 35 -2 14 -10 35 -17 48 -11 21 -11 22 6 12 25 -16 45
-45 104 -147 46 -79 49 -89 41 -122 -6 -20 -11 -29 -11 -21 -2 15 -61 50 -86
50 -7 0 -15 3 -17 8 -1 4 -34 23 -71 42 -92 47 -163 121 -182 190 -4 16 4 9
24 -21 37 -58 77 -99 97 -99 8 0 32 -11 52 -25 20 -14 42 -25 49 -25 7 0 13
-4 13 -10 0 -5 7 -10 15 -10 8 0 15 5 15 10 0 6 -7 10 -15 10 -16 0 -88 101
-121 170 -12 25 -35 62 -53 84 -17 21 -31 40 -31 42 0 12 30 1 47 -18z m-2016
-17 c-11 -20 -58 -47 -67 -38 -9 9 56 68 67 62 5 -4 6 -13 0 -24z m57 -119
c-1 -37 1 -73 5 -79 7 -10 -3 -96 -18 -173 l-5 -25 20 24 c11 13 20 21 20 17
0 -7 -63 -97 -66 -93 -11 12 -44 230 -43 283 1 38 4 59 6 47 2 -13 8 -23 13
-23 5 0 10 -12 12 -27 l4 -28 11 25 c6 14 17 46 23 73 7 26 14 47 17 47 2 0 3
-31 1 -68z m2322 47 c0 -23 -110 -53 -117 -31 -3 7 4 12 15 12 11 0 35 7 53
15 41 17 49 18 49 4z m-790 -29 c0 -5 -5 -10 -11 -10 -5 0 -7 5 -4 10 3 6 8
10 11 10 2 0 4 -4 4 -10z m172 -84 c1 -28 0 -77 -1 -108 -2 -31 1 -67 5 -80 7
-23 7 -23 20 7 16 36 18 105 4 105 -6 0 -5 6 2 14 7 8 16 11 20 7 9 -8 -6
-155 -19 -189 -8 -22 -12 -19 -62 42 -29 36 -56 65 -59 65 -17 -3 -32 2 -31 9
1 4 0 9 -1 12 -10 26 -6 40 10 40 26 0 51 -11 45 -20 -3 -4 1 -13 9 -19 11
-10 12 -4 4 36 -6 27 -15 53 -20 60 -7 8 -5 19 5 33 11 16 16 18 20 8 3 -7 6
1 6 18 2 74 40 38 43 -40z m-1610 39 c-2 -14 -8 -25 -13 -25 -10 0 -12 21 -3
44 9 24 22 10 16 -19z m1658 -45 c0 -16 -4 -30 -8 -30 -5 0 -9 14 -10 30 0 17
4 30 9 30 5 0 9 -13 9 -30z m55 10 c3 -5 -3 -10 -14 -10 -12 0 -21 5 -21 10 0
6 6 10 14 10 8 0 18 -4 21 -10z m-1658 -22 c-3 -8 -6 -5 -6 6 -1 11 2 17 5 13
3 -3 4 -12 1 -19z m1406 -18 c3 -11 1 -20 -4 -20 -5 0 -9 9 -9 20 0 11 2 20 4
20 2 0 6 -9 9 -20z m276 -6 c2 -2 2 -7 -2 -10 -3 -3 -16 2 -29 11 l-23 17 25
-7 c14 -4 27 -9 29 -11z m-2184 -74 c3 -5 1 -10 -4 -10 -6 0 -11 5 -11 10 0 6
2 10 4 10 3 0 8 -4 11 -10z m901 -22 c3 -21 -21 -40 -69 -57 -30 -10 -42 -10
-50 -1 -9 9 -6 11 13 8 19 -2 24 1 22 14 -2 12 2 16 11 12 8 -3 21 6 31 21 18
28 38 29 42 3z m653 -45 c2 -2 -5 -3 -17 -3 -14 0 -22 6 -22 16 0 14 3 15 18
3 9 -7 19 -15 21 -16z m-355 -418 l-6 -340 36 73 c20 41 36 80 36 88 0 7 14
28 31 46 l30 33 -19 -40 c-27 -56 -81 -173 -101 -217 -19 -43 -27 -47 -36 -15
-9 29 -31 80 -61 139 -13 26 -24 53 -24 59 0 6 -11 34 -25 62 -18 35 -22 52
-15 57 8 5 7 9 -4 13 -22 9 -20 44 8 118 26 69 88 208 111 250 8 14 18 46 22
70 l7 44 8 -50 c4 -27 5 -203 2 -390z m786 421 c0 -3 -4 -8 -10 -11 -5 -3 -10
-1 -10 4 0 6 5 11 10 11 6 0 10 -2 10 -4z m-1051 -37 c-11 -22 0 -25 20 -6 8
7 7 -1 -4 -21 -19 -40 -13 -52 14 -28 20 18 24 5 8 -21 -6 -9 -3 -11 10 -7 10
3 0 -12 -23 -33 -23 -21 -44 -46 -47 -55 -7 -19 2 -23 19 -10 21 16 -36 -36
-80 -72 -26 -21 -48 -37 -50 -35 -2 2 2 59 8 126 10 111 13 124 39 153 16 18
35 29 42 26 8 -3 17 -1 20 4 3 5 12 7 20 4 11 -5 12 -11 4 -25z m1711 11 c0
-5 -2 -10 -4 -10 -3 0 -8 5 -11 10 -3 6 -1 10 4 10 6 0 11 -4 11 -10z m-2790
-10 c0 -5 -13 -24 -28 -42 -16 -18 -42 -51 -58 -72 -27 -37 -27 -39 -6 -27 44
23 32 5 -25 -42 -32 -25 -59 -44 -61 -42 -8 7 91 216 107 225 21 12 71 13 71
0z m1780 -81 c0 -14 -17 -10 -23 5 -4 10 -1 13 9 9 7 -3 14 -9 14 -14z m-270
2 c0 -5 16 -8 35 -7 22 1 35 -3 35 -11 0 -19 21 -27 31 -12 6 10 9 4 9 -19 0
-22 6 -35 18 -39 9 -4 22 -14 29 -22 11 -14 12 -14 12 -1 0 21 -24 51 -34 42
-4 -4 -3 2 3 14 7 13 7 25 2 30 -5 5 -5 15 -1 23 13 21 71 -7 70 -34 -1 -17
-2 -17 -6 -2 -2 9 -11 17 -19 17 -17 0 -19 -16 -1 -24 8 -3 7 -8 -6 -16 -20
-13 -14 -32 8 -23 8 3 16 1 16 -3 2 -14 7 -67 8 -92 1 -13 5 -21 10 -18 12 8
41 -3 41 -15 0 -5 -15 -8 -33 -7 -26 1 -38 8 -55 35 -24 35 -42 43 -42 17 0
-8 -4 -12 -10 -9 -5 3 -10 15 -10 27 0 16 -5 19 -25 15 -17 -3 -24 0 -22 7 3
6 9 10 15 9 23 -5 -6 42 -38 65 -37 25 -67 62 -51 62 6 0 11 -4 11 -9z m245
-81 c12 -19 14 -50 3 -50 -5 0 -7 7 -4 16 4 11 -1 18 -14 21 -11 3 -20 9 -20
14 0 12 27 11 35 -1z m-265 -257 c0 -43 -13 -65 -24 -38 -3 9 -3 36 1 61 7 55
23 40 23 -23z"/>
<path d="M4235 4388 c-54 -32 -61 -93 -16 -139 29 -29 81 -39 107 -21 22 15
44 57 44 84 0 59 -84 107 -135 76z m69 -54 c20 -20 21 -53 0 -61 -26 -10 -64
14 -64 41 0 36 37 48 64 20z"/>
<path d="M1131 3201 c-9 -6 -3 -10 21 -13 24 -2 35 1 35 9 0 15 -35 17 -56 4z"/>
<path d="M2500 3200 c-6 -11 -8 -20 -6 -20 3 0 10 9 16 20 6 11 8 20 6 20 -3
0 -10 -9 -16 -20z"/>
<path d="M2476 3153 c-6 -14 -5 -15 5 -6 7 7 10 15 7 18 -3 3 -9 -2 -12 -12z"/>
<path d="M3107 3032 c-32 -36 -22 -52 33 -52 28 0 50 5 50 10 0 6 -4 10 -8 10
-5 0 -15 11 -22 25 -16 30 -31 32 -53 7z m38 -1 c3 -5 0 -13 -6 -17 -7 -4 -9
-3 -5 4 3 5 0 13 -6 15 -9 4 -10 6 -1 6 6 1 14 -3 18 -8z"/>
<path d="M1824 2951 c4 -6 14 -11 22 -11 8 0 22 -17 31 -37 10 -21 24 -46 32
-56 20 -24 13 -27 -47 -15 -65 13 -76 5 -66 -48 5 -30 9 -34 14 -20 12 34 39
28 45 -10 3 -19 8 -51 11 -71 7 -44 47 -129 75 -159 25 -27 24 -37 -3 -29
l-23 7 23 -23 c19 -20 25 -22 42 -12 24 16 33 2 20 -32 -15 -39 -13 -40 25 -6
20 17 38 31 41 31 3 0 3 -13 -1 -30 -7 -32 5 -39 25 -15 18 22 50 19 50 -5 0
-28 14 -25 28 5 14 31 47 35 39 5 -8 -32 9 -23 32 16 16 26 26 34 38 29 11 -4
23 2 35 17 17 22 19 22 32 6 18 -24 29 -23 21 2 -7 22 2 25 39 10 29 -11 32
-8 41 45 7 36 6 38 -7 21 -13 -17 -18 -15 -74 35 -32 30 -95 89 -139 131 -115
110 -193 170 -256 198 -60 26 -157 40 -145 21z m289 -245 c36 -14 97 -75 109
-105 10 -28 -26 -69 -68 -77 -53 -10 -93 12 -116 63 -20 45 -18 69 8 111 17
26 24 27 67 8z"/>
<path d="M1188 2823 c7 -3 16 -2 19 1 4 3 -2 6 -13 5 -11 0 -14 -3 -6 -6z"/>
<path d="M2951 2056 c-8 -10 -9 -16 -1 -21 5 -3 13 1 16 10 9 22 -1 29 -15 11z"/>
<path d="M1195 1910 c3 -5 10 -10 16 -10 5 0 9 5 9 10 0 6 -7 10 -16 10 -8 0
-12 -4 -9 -10z"/>
<path d="M828 1803 c7 -3 16 -2 19 1 4 3 -2 6 -13 5 -11 0 -14 -3 -6 -6z"/>
<path d="M1300 1747 c-14 -12 -26 -47 -16 -47 3 0 12 14 21 30 17 33 17 35 -5
17z"/>
<path d="M3317 1623 c-4 -3 -7 -13 -7 -22 1 -13 3 -13 11 2 11 19 8 33 -4 20z"/>
<path d="M2415 860 c4 -6 11 -8 16 -5 14 9 11 15 -7 15 -8 0 -12 -5 -9 -10z"/>
<path d="M3018 3565 c-4 -4 -4 -21 -1 -38 5 -25 1 -34 -23 -54 -24 -20 -27
-25 -14 -33 28 -19 55 -7 58 25 4 38 -11 109 -20 100z"/>
<path d="M1984 3528 c3 -30 -11 -36 -34 -15 -12 10 -12 9 -1 -5 14 -19 37 -24
44 -10 2 4 0 18 -4 32 -9 25 -9 25 -5 -2z"/>
<path d="M1960 3456 c0 -20 12 -26 38 -19 33 8 27 33 -8 33 -19 0 -30 -5 -30
-14z"/>
<path d="M1006 2934 c-4 -9 -4 -19 -1 -23 8 -7 38 12 43 27 6 19 -35 14 -42
-4z"/>
<path d="M4015 2937 c-4 -10 -5 -21 -1 -24 10 -10 18 4 13 24 -4 17 -4 17 -12
0z"/>
<path d="M3550 2530 c0 -32 4 -49 10 -45 6 3 10 24 10 45 0 21 -4 42 -10 45
-6 4 -10 -13 -10 -45z"/>
<path d="M3590 2561 c0 -10 -3 -33 -6 -50 -5 -24 -3 -31 10 -31 13 0 16 11 16
50 0 28 -4 50 -10 50 -5 0 -10 -8 -10 -19z"/>
<path d="M3663 2525 c0 -33 2 -45 4 -27 2 18 2 45 0 60 -2 15 -4 0 -4 -33z"/>
<path d="M3025 1430 c-4 -12 -5 -24 -2 -27 3 -2 8 5 12 17 4 12 5 24 2 27 -3
2 -8 -5 -12 -17z"/>
<path d="M867 1303 c-4 -3 -7 -16 -6 -27 0 -19 1 -19 10 3 10 24 8 36 -4 24z"/>
<path d="M1613 1140 c0 -30 2 -43 4 -27 2 15 2 39 0 55 -2 15 -4 2 -4 -28z"/>
<path d="M4022 1103 c-1 -17 -5 -40 -8 -50 -5 -14 -4 -15 5 -7 7 7 11 28 8 50
-3 35 -4 35 -5 7z"/>
<path d="M1836 1044 c-4 -15 -3 -31 3 -37 7 -7 12 -1 17 17 3 15 2 32 -3 37
-7 7 -13 1 -17 -17z"/>
<path d="M1423 1015 c0 -22 2 -30 4 -17 2 12 2 30 0 40 -3 9 -5 -1 -4 -23z"/>
<path d="M1432 920 c0 -19 2 -27 5 -17 2 9 2 25 0 35 -3 9 -5 1 -5 -18z"/>
<path d="M1762 860 c0 -19 2 -27 5 -17 2 9 2 25 0 35 -3 9 -5 1 -5 -18z"/>
<path d="M2180 665 c0 -82 3 -146 6 -143 7 7 6 280 -1 286 -3 3 -5 -61 -5
-143z"/>
<path d="M2791 734 c0 -11 3 -14 6 -6 3 7 2 16 -1 19 -3 4 -6 -2 -5 -13z"/>
</g>
</svg>
